<?xml version="1.0" standalone="no"?>
<!DOCTYPE svg PUBLIC "-//W3C//DTD SVG 20010904//EN"
 "http://www.w3.org/TR/2001/REC-SVG-20010904/DTD/svg10.dtd">
<svg version="1.0" xmlns="http://www.w3.org/2000/svg"
 width="149.000000pt" height="149.000000pt" viewBox="0 0 149.000000 149.000000"
 preserveAspectRatio="xMidYMid meet">
<metadata>
Created by potrace 1.14, written by Peter Selinger 2001-2017
</metadata>
<g transform="translate(0.000000,149.000000) scale(0.100000,-0.100000)"
fill="#000000" stroke="none">
<path d="M848 1263 c-8 -10 -20 -38 -27 -63 -30 -105 -110 -237 -194 -318
l-45 -44 -4 149 c-4 169 -21 222 -80 258 -37 22 -140 27 -159 8 -8 -8 -8 -42
0 -129 6 -66 15 -254 21 -419 6 -165 13 -346 16 -402 6 -101 6 -102 27 -90 12
7 30 21 39 32 10 11 26 29 36 40 49 53 66 98 77 209 l10 110 45 27 c25 15 48
28 52 28 22 3 187 -288 219 -384 7 -22 18 -46 24 -53 20 -22 64 -3 92 39 24
36 25 45 19 108 -11 119 -80 290 -156 386 l-30 38 63 66 c112 117 175 231 163
296 -15 80 -165 158 -208 108z"/>
</g>
</svg>
